<?xml version="1.0" standalone="no"?>
<!DOCTYPE svg PUBLIC "-//W3C//DTD SVG 20010904//EN"
 "http://www.w3.org/TR/2001/REC-SVG-20010904/DTD/svg10.dtd">
<svg version="1.0" xmlns="http://www.w3.org/2000/svg"
 width="200.000000pt" height="199.000000pt" viewBox="0 0 200.000000 199.000000"
 preserveAspectRatio="xMidYMid meet">

<g transform="translate(0.000000,199.000000) scale(0.100000,-0.100000)"
fill="#000000" stroke="none">
<path d="M800 1971 c-47 -10 -121 -33 -165 -50 -465 -180 -727 -692 -600
-1175 82 -310 306 -563 600 -677 136 -53 250 -72 400 -66 264 10 482 104 666
287 130 128 217 283 265 465 21 82 26 124 27 230 1 72 -5 157 -12 190 -83 394
-355 684 -739 787 -112 30 -328 34 -442 9z m690 -390 l0 -60 -322 -3 c-316 -3
-324 -3 -363 -26 -65 -37 -90 -83 -90 -163 0 -88 12 -101 62 -66 61 42 165 86
239 102 47 10 132 15 267 15 l197 0 0 -60 0 -60 -167 0 c-182 0 -265 -10 -346
-40 -64 -25 -122 -59 -113 -68 4 -4 101 -5 217 -3 l209 3 0 -66 0 -66 -217 0
c-184 1 -226 3 -270 19 -60 20 -61 20 -106 -59 -52 -92 -60 -137 -65 -392 l-4
-238 -59 0 -59 0 0 223 c0 156 5 242 15 291 16 74 60 177 102 238 l25 37 -29
58 c-23 48 -28 70 -28 133 1 99 29 163 101 229 86 78 91 79 472 80 l332 1 0
-59z m-2 -93 c-3 -8 -28 -14 -66 -16 -51 -2 -62 0 -62 13 0 12 13 15 66 15 48
0 65 -3 62 -12z m0 -40 c-3 -8 -28 -14 -66 -16 -51 -2 -62 0 -62 13 0 12 13
15 66 15 48 0 65 -3 62 -12z m0 -40 c-3 -8 -28 -14 -66 -16 -51 -2 -62 0 -62
13 0 12 13 15 66 15 48 0 65 -3 62 -12z m-208 -423 c0 -12 -14 -15 -65 -15
-51 0 -65 3 -65 15 0 12 14 15 65 15 51 0 65 -3 65 -15z m0 -50 c0 -12 -14
-15 -65 -15 -51 0 -65 3 -65 15 0 12 14 15 65 15 51 0 65 -3 65 -15z m0 -94
l0 -58 -92 -6 c-114 -6 -173 -26 -233 -79 -73 -65 -98 -123 -103 -245 l-4
-103 -64 0 -64 0 0 74 c0 150 36 251 121 341 96 102 176 134 337 134 l102 1 0
-59z m-590 -431 c0 -47 -3 -60 -15 -60 -12 0 -15 13 -15 60 0 47 3 60 15 60
12 0 15 -13 15 -60z"/>
</g>
</svg>
